<svg width="33" height="33" viewBox="0 0 33 33" fill="none" xmlns="http://www.w3.org/2000/svg">
    <rect x="0.956299" y="0.40625" width="32" height="32" rx="16" fill="#F7931A" />
    <path
        d="M24.1453 14.4263C24.4593 12.3303 22.8623 11.2032 20.6803 10.4513L21.3883 7.61125L19.6603 7.18125L18.9703 9.94625C18.5163 9.83225 18.0503 9.72625 17.5853 9.62025L18.2803 6.83725L16.5523 6.40625L15.8443 9.24525C15.4683 9.15925 15.0983 9.07525 14.7403 8.98525L14.7423 8.97625L12.3583 8.38125L11.8983 10.2273C11.8983 10.2273 13.1813 10.5213 13.1543 10.5393C13.8543 10.7143 13.9803 11.1772 13.9593 11.5452L13.1533 14.7802C13.2013 14.7922 13.2633 14.8102 13.3333 14.8372L13.1503 14.7922L12.0203 19.3242C11.9343 19.5362 11.7173 19.8552 11.2273 19.7342C11.2453 19.7592 9.97128 19.4212 9.97128 19.4212L9.11328 21.3993L11.3633 21.9603C11.7813 22.0653 12.1913 22.1753 12.5943 22.2782L11.8793 25.1502L13.6063 25.5802L14.3143 22.7402C14.7863 22.8673 15.2443 22.9853 15.6923 23.0972L14.9863 25.9252L16.7143 26.3552L17.4293 23.4893C20.3773 24.0473 22.5933 23.8223 23.5263 21.1562C24.2783 19.0103 23.4893 17.7713 21.9383 16.9643C23.0683 16.7043 23.9183 15.9613 24.1453 14.4263ZM20.1953 19.9643C19.6623 22.1113 16.0473 20.9503 14.8753 20.6593L15.8253 16.8542C16.9973 17.1473 20.7543 17.7263 20.1953 19.9643ZM20.7303 14.3953C20.2433 16.3483 17.2353 15.3553 16.2603 15.1123L17.1203 11.6622C18.0953 11.9052 21.2383 12.3583 20.7303 14.3953Z"
        fill="white" />
</svg>