<svg width="24" height="16" viewBox="0 0 24 16" fill="none" xmlns="http://www.w3.org/2000/svg">
    <path
        d="M22 0H2C0.89543 0 0 0.89543 0 2V14C0 15.1046 0.89543 16 2 16H22C23.1046 16 24 15.1046 24 14V2C24 0.89543 23.1046 0 22 0Z"
        fill="#0D47A1" />
    <path
        d="M0.413812 7.98686H1.13259L4.96556 5.43571V7.98686H7.03453V5.43571L10.8675 7.98686H11.5862C11.8147 7.98686 12 7.79862 12 7.56648V7.23305L8.71153 5.04433H12V2.94252H8.71148L12 0.75381V0.420381C12 0.18819 11.8147 0 11.5862 0H10.8674L7.03444 2.55114V0H4.96547V2.55114L1.25831 0.0837143C0.825469 0.22181 0.463594 0.521952 0.240609 0.913905L3.28856 2.94252H0V5.04433H3.28852L0 7.23305V7.56648C0 7.79862 0.185203 7.98686 0.413812 7.98686Z"
        fill="white" />
    <path
        d="M6.12522 10.2793L6.43755 11.3268L7.43847 10.9218C7.52388 10.8872 7.6015 10.9861 7.54938 11.063L6.93794 11.9641L7.87366 12.5066C7.95349 12.5529 7.92578 12.6762 7.8341 12.6827L6.7593 12.7589L6.92528 13.8403C6.93944 13.9326 6.82722 13.9875 6.76507 13.9187L6.03625 13.1126L5.30744 13.9187C5.24528 13.9875 5.13306 13.9326 5.14722 13.8403L5.31321 12.7589L4.23841 12.6827C4.14672 12.6762 4.11897 12.5529 4.19885 12.5066L5.13456 11.9641L4.52313 11.063C4.471 10.9861 4.54863 10.8872 4.63403 10.9218L5.63496 11.3268L5.94728 10.2793C5.97405 10.1899 6.0986 10.1899 6.12522 10.2793ZM18.435 11.8033L18.5876 12.315L19.0765 12.1171C19.1181 12.1003 19.1561 12.1486 19.1306 12.1861L18.832 12.6264L19.289 12.8914C19.328 12.9139 19.3145 12.9742 19.2697 12.9774L18.7447 13.0146L18.8257 13.5429C18.8327 13.5879 18.7778 13.6148 18.7474 13.5811L18.3914 13.1874L18.0354 13.5811C18.005 13.6147 17.9502 13.5879 17.9571 13.5429L18.0382 13.0146L17.5132 12.9774C17.4684 12.9742 17.4548 12.9139 17.4938 12.8914L17.9509 12.6264L17.6523 12.1861C17.6268 12.1486 17.6647 12.1003 17.7064 12.1171L18.1953 12.315L18.3479 11.8033C18.3611 11.7597 18.422 11.7597 18.435 11.8033ZM19.6154 7.67842C19.6312 7.63014 19.6985 7.63014 19.7144 7.67842L19.8369 8.05157L20.2241 8.05461C20.2742 8.05504 20.295 8.11995 20.2546 8.15023L19.9431 8.3839L20.0599 8.7589C20.075 8.80742 20.0207 8.84757 19.9799 8.818L19.6649 8.58928L19.3499 8.818C19.3091 8.84761 19.2547 8.80747 19.2698 8.7589L19.3866 8.3839L19.0752 8.15023C19.0348 8.12 19.0556 8.05504 19.1058 8.05461L19.4929 8.05157L19.6154 7.67842ZM15.0329 6.75899L15.1855 7.27066L15.6745 7.07285C15.7161 7.05599 15.7541 7.10428 15.7286 7.14185L15.43 7.58209L15.887 7.84709C15.926 7.86966 15.9125 7.92995 15.8677 7.93309L15.3427 7.97033L15.4238 8.49857C15.4307 8.54366 15.3759 8.57047 15.3455 8.53685L14.9895 8.14309L14.6335 8.53685C14.6031 8.57042 14.5483 8.54361 14.5552 8.49857L14.6363 7.97033L14.1113 7.93309C14.0665 7.9299 14.0529 7.86966 14.0919 7.84709L14.549 7.58209L14.2503 7.14185C14.2248 7.10428 14.2628 7.05599 14.3045 7.07285L14.7934 7.27066L14.946 6.75899C14.959 6.71533 15.0199 6.71533 15.0329 6.75899ZM21.6536 5.07752L21.8062 5.58918L22.2951 5.39138C22.3368 5.37452 22.3748 5.4228 22.3493 5.46038L22.0506 5.90061L22.5077 6.16561C22.5467 6.18819 22.5332 6.24847 22.4883 6.25161L21.9633 6.28885L22.0444 6.81709C22.0514 6.86219 21.9965 6.88899 21.9662 6.85538L21.6101 6.46161L21.2541 6.85538C21.2238 6.88895 21.169 6.86214 21.1759 6.81709L21.257 6.28885L20.732 6.25161C20.6872 6.24842 20.6736 6.18819 20.7126 6.16561L21.1697 5.90061L20.8711 5.46038C20.8456 5.4228 20.8835 5.37452 20.9252 5.39138L21.4142 5.58918L21.5667 5.07752C21.5797 5.0339 21.6406 5.0339 21.6536 5.07752ZM18.435 2.83161L18.5876 3.34328L19.0765 3.14547C19.1181 3.12861 19.1561 3.1769 19.1306 3.21447L18.832 3.65471L19.289 3.91971C19.328 3.94228 19.3145 4.00257 19.2697 4.00571L18.7447 4.04295L18.8257 4.57119C18.8327 4.61628 18.7778 4.64309 18.7474 4.60947L18.3914 4.21571L18.0354 4.60947C18.005 4.64304 17.9502 4.61623 17.9571 4.57119L18.0382 4.04295L17.5132 4.00571C17.4684 4.00252 17.4548 3.94228 17.4938 3.91971L17.9509 3.65471L17.6523 3.21447C17.6268 3.1769 17.6647 3.12861 17.7064 3.14547L18.1953 3.34328L18.3479 2.83161C18.3611 2.7879 18.422 2.7879 18.435 2.83161Z"
        fill="white" />
    <path
        d="M6.62067 0V3.3629H12V4.62395H6.62067V7.98686H5.37933V4.62395H0V3.3629H5.37933V0H6.62067ZM4.95417 5.04433L0.491859 7.98686H0.413812C0.290587 7.98686 0.183382 7.92971 0.108925 7.84196L0.0594844 7.77081L4.19409 5.04433H4.95417ZM8.11847 5.04438L11.9934 7.59952C11.981 7.75367 11.8906 7.8839 11.7588 7.94605L7.35844 5.04438H8.11847ZM0.684703 0.392524L4.5517 2.94252H3.79167L0.385641 0.696476C0.473297 0.583619 0.573656 0.481571 0.684703 0.392524ZM11.5862 0C11.7077 0 11.8132 0.0557105 11.8875 0.141361L11.937 0.21081L7.79452 2.94252H7.03448L11.4967 0H11.5862Z"
        fill="#F44336" />
    <path fill-rule="evenodd" clip-rule="evenodd"
        d="M22 1H2C1.44772 1 1 1.44772 1 2V14C1 14.5523 1.44772 15 2 15H22C22.5523 15 23 14.5523 23 14V2C23 1.44771 22.5523 1 22 1ZM2 0C0.895431 0 0 0.895431 0 2V14C0 15.1046 0.89543 16 2 16H22C23.1046 16 24 15.1046 24 14V2C24 0.895431 23.1046 0 22 0H2Z"
        fill="black" fill-opacity="0.08" />
</svg>