<svg width="24" height="16" viewBox="0 0 24 16" fill="none" xmlns="http://www.w3.org/2000/svg">
    <path
        d="M22 0H2C0.89543 0 0 0.89543 0 2V14C0 15.1046 0.89543 16 2 16H22C23.1046 16 24 15.1046 24 14V2C24 0.89543 23.1046 0 22 0Z"
        fill="#0D47A1" />
    <path
        d="M12.1683 12.6927L12.3342 13.198L12.8586 13.2022C12.9265 13.2027 12.9546 13.2907 12.9 13.3317L12.4781 13.6482L12.6363 14.1561C12.6568 14.2218 12.5831 14.2763 12.5278 14.2361L12.1012 13.9263L11.6746 14.2361C11.6194 14.2762 11.5457 14.2218 11.5661 14.1561L11.7243 13.6482L11.3024 13.3317C11.2478 13.2907 11.2759 13.2027 11.3439 13.2022L11.8683 13.198L12.0342 12.6927C12.0556 12.6272 12.1468 12.6272 12.1683 12.6927ZM9.58417 11.8453L9.75011 12.3507L10.2745 12.3548C10.3424 12.3554 10.3705 12.4434 10.3159 12.4844L9.89407 12.8008L10.0522 13.3088C10.0727 13.3745 9.99902 13.4289 9.94375 13.3888L9.51714 13.079L9.09053 13.3888C9.03532 13.4289 8.96158 13.3745 8.98207 13.3088L9.14022 12.8008L8.71835 12.4844C8.66374 12.4434 8.69186 12.3554 8.75978 12.3548L9.28418 12.3508L9.45011 11.8454C9.47158 11.7798 9.56275 11.7798 9.58417 11.8453ZM14.7906 11.8453C14.8121 11.7798 14.9032 11.7798 14.9247 11.8454L15.0906 12.3508L15.615 12.3548C15.6829 12.3554 15.7111 12.4434 15.6565 12.4844L15.2346 12.8008L15.3927 13.3088C15.4132 13.3745 15.3395 13.4289 15.2843 13.3888L14.8577 13.079L14.4311 13.3888C14.3758 13.4289 14.3021 13.3745 14.3226 13.3088L14.4807 12.8008L14.0589 12.4844C14.0043 12.4434 14.0324 12.3554 14.1003 12.3548L14.6247 12.3507L14.7906 11.8453ZM16.8795 9.85947L17.0454 10.3648L17.5698 10.369C17.6377 10.3695 17.6658 10.4575 17.6112 10.4985L17.1894 10.815L17.3475 11.3229C17.368 11.3887 17.2943 11.4431 17.2391 11.4029L16.8124 11.0931L16.3858 11.4029C16.3306 11.443 16.2569 11.3887 16.2774 11.3229L16.4355 10.815L16.0136 10.4985C15.959 10.4575 15.9872 10.3695 16.0551 10.369L16.5795 10.3648L16.7454 9.85947C16.7669 9.79409 16.858 9.79409 16.8795 9.85947ZM7.6093 9.82809L7.62944 9.85947L7.79538 10.3648L8.31977 10.369C8.37411 10.3694 8.40297 10.4258 8.38439 10.4694L8.36121 10.4985L7.93933 10.815L8.09749 11.3229C8.11388 11.3755 8.06996 11.4208 8.02347 11.4163L7.98902 11.4029L7.56241 11.0931L7.1358 11.4029C7.09159 11.4351 7.03559 11.4067 7.02544 11.3603L7.02733 11.3229L7.18549 10.815L6.76361 10.4985C6.71993 10.4657 6.72919 10.4028 6.76942 10.3787L6.80505 10.369L7.32944 10.3648L7.49538 9.85947C7.51255 9.80716 7.57428 9.7967 7.6093 9.82809ZM17.5088 7.26733L17.6747 7.77271L18.1991 7.77685C18.267 7.77737 18.2951 7.86537 18.2405 7.90637L17.8187 8.22285L17.9768 8.73075C17.9973 8.79647 17.9236 8.85094 17.8683 8.8108L17.4417 8.50099L17.0151 8.8108C16.9599 8.8509 16.8862 8.79652 16.9067 8.73075L17.0648 8.22285L16.6429 7.90637C16.5883 7.86537 16.6165 7.77737 16.6844 7.77685L17.2088 7.77271L17.3747 7.26733C17.3961 7.20194 17.4873 7.20194 17.5088 7.26733ZM6.82769 7.26733L6.99363 7.77271L7.51802 7.77685C7.58594 7.77737 7.61407 7.86537 7.55946 7.90637L7.13758 8.22285L7.29574 8.73075C7.31622 8.79647 7.24253 8.85094 7.18727 8.8108L6.76066 8.50099L6.33405 8.8108C6.27883 8.8509 6.2051 8.79652 6.22558 8.73075L6.38374 8.22285L5.96186 7.90637C5.90725 7.86537 5.93538 7.77737 6.0033 7.77685L6.52769 7.77271L6.69363 7.26733C6.7151 7.20194 6.80627 7.20194 6.82769 7.26733ZM7.62944 4.43418L7.79538 4.93956L8.31977 4.94371C8.38769 4.94423 8.41582 5.03223 8.36121 5.07323L7.93933 5.38971L8.09749 5.89761C8.11797 5.96333 8.04428 6.0178 7.98902 5.97766L7.56241 5.66785L7.1358 5.97766C7.08058 6.01775 7.00685 5.96337 7.02733 5.89761L7.18549 5.38971L6.76361 5.07323C6.709 5.03223 6.73713 4.94423 6.80505 4.94371L7.32944 4.93956L7.49538 4.43418C7.51685 4.36875 7.60793 4.36875 7.62944 4.43418ZM16.8593 4.40278L16.8795 4.43418L17.0454 4.93956L17.5698 4.94371C17.6241 4.94413 17.653 5.00053 17.6344 5.04407L17.6112 5.07323L17.1894 5.38971L17.3475 5.89761C17.3639 5.95022 17.32 5.99555 17.2735 5.99104L17.2391 5.97766L16.8124 5.66785L16.3858 5.97766C16.3416 6.00977 16.2856 5.98133 16.2755 5.93502L16.2774 5.89761L16.4355 5.38971L16.0136 5.07323C15.97 5.04043 15.9792 4.97755 16.0194 4.95344L16.0551 4.94371L16.5795 4.93956L16.7454 4.43418C16.7626 4.38184 16.8243 4.37137 16.8593 4.40278ZM14.9247 2.44837L15.0907 2.95375L15.6151 2.9579C15.683 2.95842 15.7111 3.04642 15.6565 3.08742L15.2346 3.4039L15.3928 3.9118C15.4133 3.97752 15.3396 4.03199 15.2843 3.99185L14.8577 3.68204L14.4311 3.99185C14.3758 4.03194 14.3021 3.97756 14.3226 3.9118L14.4807 3.4039L14.0589 3.08742C14.0043 3.04642 14.0324 2.95842 14.1003 2.9579L14.6247 2.95375L14.7906 2.44837C14.8121 2.38299 14.9032 2.38299 14.9247 2.44837ZM9.56403 2.41699L9.58417 2.44837L9.75011 2.95375L10.2745 2.9579C10.3288 2.95832 10.3577 3.01472 10.3391 3.05826L10.3159 3.08742L9.89407 3.4039L10.0522 3.9118C10.0686 3.96441 10.0247 4.00974 9.9782 4.00523L9.94375 3.99185L9.51714 3.68204L9.09053 3.99185C9.04632 4.02396 8.99032 3.99552 8.98017 3.94921L8.98207 3.9118L9.14022 3.4039L8.71835 3.08742C8.67466 3.05462 8.68392 2.99174 8.72415 2.96763L8.75978 2.9579L9.28418 2.95375L9.45011 2.44837C9.46729 2.39607 9.52901 2.38561 9.56403 2.41699ZM12.1683 1.84204L12.3342 2.34742L12.8586 2.35156C12.9265 2.35209 12.9546 2.44009 12.9 2.48109L12.4781 2.79756L12.6363 3.30547C12.6568 3.37118 12.5831 3.42566 12.5278 3.38552L12.1012 3.07571L11.6746 3.38552C11.6194 3.42561 11.5457 3.37123 11.5661 3.30547L11.7243 2.79756L11.3024 2.48109C11.2478 2.44009 11.2759 2.35209 11.3439 2.35156L11.8683 2.34742L12.0342 1.84204C12.0556 1.77661 12.1468 1.77661 12.1683 1.84204Z"
        fill="#FFEB3B" />
    <path fill-rule="evenodd" clip-rule="evenodd"
        d="M22 1H2C1.44772 1 1 1.44772 1 2V14C1 14.5523 1.44772 15 2 15H22C22.5523 15 23 14.5523 23 14V2C23 1.44771 22.5523 1 22 1ZM2 0C0.895431 0 0 0.895431 0 2V14C0 15.1046 0.89543 16 2 16H22C23.1046 16 24 15.1046 24 14V2C24 0.895431 23.1046 0 22 0H2Z"
        fill="black" fill-opacity="0.08" />
</svg>