<svg width="24" height="16" viewBox="0 0 24 16" fill="none" xmlns="http://www.w3.org/2000/svg">
    <mask id="mask0_9_63" style="mask-type:alpha" maskUnits="userSpaceOnUse" x="0" y="0" width="24" height="16">
        <path
            d="M22 0H2C0.89543 0 0 0.89543 0 2V14C0 15.1046 0.89543 16 2 16H22C23.1046 16 24 15.1046 24 14V2C24 0.89543 23.1046 0 22 0Z"
            fill="white" />
    </mask>
    <g mask="url(#mask0_9_63)">
        <path
            d="M22 0H2C0.89543 0 0 0.89543 0 2V14C0 15.1046 0.89543 16 2 16H22C23.1046 16 24 15.1046 24 14V2C24 0.89543 23.1046 0 22 0Z"
            fill="#0D47A1" />
        <path
            d="M23.9751 1.53684C23.8335 0.672124 23.094 0.0126953 22.2026 0.0126953H21.7349L14.069 5.11493V0.0126953H9.93103V5.11498L2.26509 0.0126953H1.79742C0.906 0.0126953 0.166547 0.672124 0.0248906 1.53689L6.57698 5.89784H0V10.1015H6.57698L0.0248906 14.4623C0.166547 15.327 0.906 15.9865 1.79742 15.9865H2.26509L9.93103 10.8842V15.9865H14.069V10.8842L21.7349 15.9865H22.2026C23.094 15.9865 23.8335 15.3271 23.9751 14.4623L17.423 10.1014H24V5.89774H17.423L23.9751 1.53684Z"
            fill="white" />
        <path
            d="M13.2414 0.0126953V6.73846H24V9.26065H13.2414V15.9864H10.7586V9.26065H0V6.73846H10.7586V0.0126953H13.2414ZM9.90825 10.1014L1.16217 15.8687C0.934209 15.7812 0.728507 15.6479 0.555672 15.48L0.432375 15.3476L8.38819 10.1014H9.90825ZM16.2369 10.1014L23.7639 15.0647C23.651 15.2654 23.5018 15.4422 23.3253 15.5859L23.1879 15.6873L14.7169 10.1014H16.2369ZM0.725391 0.372981L9.10345 5.89774H7.58339L0.189797 1.02217C0.316359 0.765457 0.500437 0.543076 0.725391 0.372981ZM22.8235 0.124648C23.1105 0.231933 23.3626 0.411743 23.5594 0.641791L15.589 5.89774H14.069L22.8235 0.124648Z"
            fill="#F44336" />
        <path fill-rule="evenodd" clip-rule="evenodd"
            d="M22 1H2C1.44772 1 1 1.44772 1 2V14C1 14.5523 1.44772 15 2 15H22C22.5523 15 23 14.5523 23 14V2C23 1.44771 22.5523 1 22 1ZM2 0C0.895431 0 0 0.895431 0 2V14C0 15.1046 0.89543 16 2 16H22C23.1046 16 24 15.1046 24 14V2C24 0.895431 23.1046 0 22 0H2Z"
            fill="black" fill-opacity="0.08" />
    </g>
</svg>