<svg width="24" height="16" viewBox="0 0 24 16" fill="none" xmlns="http://www.w3.org/2000/svg">
    <mask id="mask0_9_32" style="mask-type:alpha" maskUnits="userSpaceOnUse" x="0" y="0" width="24" height="16">
        <path
            d="M22 0H2C0.89543 0 0 0.89543 0 2V14C0 15.1046 0.89543 16 2 16H22C23.1046 16 24 15.1046 24 14V2C24 0.89543 23.1046 0 22 0Z"
            fill="white" />
    </mask>
    <g mask="url(#mask0_9_32)">
        <path
            d="M22 0H2C0.89543 0 0 0.89543 0 2V14C0 15.1046 0.89543 16 2 16H22C23.1046 16 24 15.1046 24 14V2C24 0.89543 23.1046 0 22 0Z"
            fill="white" />
        <path
            d="M24 14.688C24 15.4126 23.4126 16 22.688 16H1.312C0.587403 16 0 15.4126 0 14.688H24ZM24 12.24V13.464H0V12.24H24ZM24 9.792V11.016H0V9.792H24ZM24 7.344V8.568H0V7.344H24ZM24 4.896V6.12H0V4.896H24ZM24 2.448V3.672H0V2.448H24ZM22.776 0C23.4097 0 23.931 0.481644 23.9937 1.09885L24 1.224H0.688377C0.688377 0.548003 1.23638 0 1.91238 0H22.776Z"
            fill="#F44336" />
        <path d="M2 0H11.5V8.568H0V2C0 0.89543 0.89543 0 2 0Z" fill="#0D47A1" />
        <path
            d="M1.09356 6.81644L1.18876 7.09804H1.48396C1.50075 7.09847 1.51549 7.10934 1.52085 7.12525C1.52622 7.14117 1.52107 7.15874 1.50796 7.16924L1.26796 7.34604L1.35836 7.62764C1.36395 7.64413 1.35799 7.66232 1.34374 7.67231C1.32949 7.68231 1.31036 7.68171 1.29676 7.67084L1.05676 7.49884L0.816763 7.67084C0.802976 7.68053 0.784597 7.68053 0.770802 7.67086C0.757006 7.66119 0.750753 7.6439 0.755163 7.62764L0.853563 7.34764L0.613563 7.17084C0.600458 7.16034 0.595309 7.14277 0.600674 7.12685C0.606038 7.11094 0.620774 7.10007 0.637563 7.09964H0.933563L1.02876 6.81804C1.03436 6.77804 1.08236 6.77804 1.09356 6.81644ZM10.1289 6.79089C10.1447 6.79051 10.1586 6.80113 10.1624 6.81644L10.2576 7.09804H10.5528C10.5696 7.09847 10.5843 7.10934 10.5897 7.12525C10.595 7.14117 10.5899 7.15874 10.5768 7.16924L10.3368 7.34604L10.4272 7.62764C10.4327 7.64413 10.4268 7.66232 10.4125 7.67231C10.3983 7.68231 10.3792 7.68171 10.3656 7.67084L10.1256 7.49884L9.88556 7.67084C9.87178 7.68053 9.8534 7.68053 9.8396 7.67086C9.82581 7.66119 9.81955 7.6439 9.82396 7.62764L9.92236 7.34764L9.68236 7.17084C9.66926 7.16034 9.66411 7.14277 9.66947 7.12685C9.67484 7.11094 9.68957 7.10007 9.70636 7.09964H10.0016L10.0968 6.81804C10.0998 6.80257 10.1132 6.79128 10.1289 6.79089ZM7.86012 6.79089C7.87588 6.79051 7.88979 6.80113 7.89356 6.81644L7.98876 7.09804H8.28396C8.30075 7.09847 8.31549 7.10934 8.32085 7.12525C8.32622 7.14117 8.32107 7.15874 8.30796 7.16924L8.06796 7.34604L8.15836 7.62764C8.16395 7.64413 8.15799 7.66232 8.14374 7.67231C8.12949 7.68231 8.11036 7.68171 8.09676 7.67084L7.85676 7.49884L7.61676 7.67084C7.60298 7.68053 7.5846 7.68053 7.5708 7.67086C7.55701 7.66119 7.55075 7.6439 7.55516 7.62764L7.65356 7.34764L7.41356 7.17084C7.40046 7.16034 7.39531 7.14277 7.40067 7.12685C7.40604 7.11094 7.42077 7.10007 7.43756 7.09964H7.73276L7.82796 6.81804C7.83099 6.80257 7.84436 6.79128 7.86012 6.79089ZM3.36156 6.81644L3.45676 7.09804H3.75196C3.76875 7.09847 3.78349 7.10934 3.78885 7.12525C3.79422 7.14117 3.78907 7.15874 3.77596 7.16924L3.53596 7.34604L3.62636 7.62764C3.63195 7.64413 3.62599 7.66232 3.61174 7.67231C3.59749 7.68231 3.57836 7.68171 3.56476 7.67084L3.32476 7.49884L3.08476 7.67084C3.07098 7.68053 3.0526 7.68053 3.0388 7.67086C3.02501 7.66119 3.01875 7.6439 3.02316 7.62764L3.12156 7.34764L2.88156 7.17084C2.86846 7.16034 2.86331 7.14277 2.86867 7.12685C2.87404 7.11094 2.88877 7.10007 2.90556 7.09964H3.20156L3.29676 6.81804C3.29756 6.77804 3.35036 6.77804 3.36156 6.81644ZM5.63036 6.81644L5.72556 7.09804H6.02076C6.03755 7.09847 6.05229 7.10934 6.05765 7.12525C6.06302 7.14117 6.05787 7.15874 6.04476 7.16924L5.80476 7.34604L5.89516 7.62764C5.90075 7.64413 5.89479 7.66232 5.88054 7.67231C5.86629 7.68231 5.84716 7.68171 5.83356 7.67084L5.59356 7.49884L5.35356 7.67084C5.33978 7.68053 5.3214 7.68053 5.3076 7.67086C5.29381 7.66119 5.28755 7.6439 5.29196 7.62764L5.39036 7.34764L5.15036 7.17084C5.13726 7.16034 5.13211 7.14277 5.13747 7.12685C5.14284 7.11094 5.15757 7.10007 5.17436 7.09964H5.47036L5.56556 6.81804C5.56636 6.77804 5.61916 6.77804 5.63036 6.81644ZM2.22796 6.07244L2.32316 6.35404H2.61836C2.63515 6.35447 2.64989 6.36534 2.65525 6.38125C2.66062 6.39717 2.65547 6.41474 2.64236 6.42524L2.40236 6.60204L2.49276 6.88364C2.49835 6.90013 2.49239 6.91832 2.47814 6.92831C2.46389 6.93831 2.44476 6.93771 2.43116 6.92684L2.19116 6.75484L1.95116 6.92684C1.93738 6.93653 1.919 6.93653 1.9052 6.92686C1.89141 6.91719 1.88515 6.8999 1.88956 6.88364L1.97996 6.60204L1.73996 6.42524C1.72686 6.41474 1.72171 6.39717 1.72707 6.38125C1.73244 6.36534 1.74717 6.35447 1.76396 6.35404H2.06796L2.16316 6.07244C2.16876 6.03404 2.21676 6.03404 2.22796 6.07244ZM9.00956 6.04057C9.02095 6.04714 9.02796 6.05929 9.02796 6.07244L9.12316 6.35404H9.41836C9.43515 6.35447 9.44989 6.36534 9.45525 6.38125C9.46062 6.39717 9.45547 6.41474 9.44236 6.42524L9.20236 6.60204L9.29276 6.88364C9.29835 6.90013 9.29239 6.91832 9.27814 6.92831C9.26389 6.93831 9.24476 6.93771 9.23116 6.92684L8.99116 6.75484L8.75116 6.92684C8.73738 6.93653 8.719 6.93653 8.7052 6.92686C8.69141 6.91719 8.68515 6.8999 8.68956 6.88364L8.77996 6.60204L8.53996 6.42524C8.52686 6.41474 8.52171 6.39717 8.52707 6.38125C8.53244 6.36534 8.54717 6.35447 8.56396 6.35404H8.85916L8.95436 6.07244C8.95436 6.05929 8.96138 6.04714 8.97276 6.04057C8.98415 6.034 8.99818 6.034 9.00956 6.04057ZM6.76476 6.07244L6.85996 6.35404H7.15516C7.17195 6.35447 7.18669 6.36534 7.19205 6.38125C7.19742 6.39717 7.19227 6.41474 7.17916 6.42524L6.93916 6.60204L7.02956 6.88364C7.03515 6.90013 7.02919 6.91832 7.01494 6.92831C7.00069 6.93831 6.98156 6.93771 6.96796 6.92684L6.72796 6.75484L6.48796 6.92684C6.47418 6.93653 6.4558 6.93653 6.442 6.92686C6.42821 6.91719 6.42195 6.8999 6.42636 6.88364L6.51676 6.60204L6.27676 6.42524C6.26366 6.41474 6.25851 6.39717 6.26387 6.38125C6.26924 6.36534 6.28397 6.35447 6.30076 6.35404H6.59596L6.69116 6.07244C6.70076 6.03404 6.75356 6.03404 6.76476 6.07244ZM4.49596 6.07244L4.59116 6.35404H4.88636C4.90315 6.35447 4.91789 6.36534 4.92325 6.38125C4.92862 6.39717 4.92347 6.41474 4.91036 6.42524L4.67036 6.60204L4.76076 6.88364C4.76635 6.90013 4.76039 6.91832 4.74614 6.92831C4.73189 6.93831 4.71276 6.93771 4.69916 6.92684L4.45916 6.75484L4.21916 6.92684C4.20538 6.93653 4.187 6.93653 4.1732 6.92686C4.15941 6.91719 4.15315 6.8999 4.15756 6.88364L4.24796 6.60204L4.00796 6.42524C3.99486 6.41474 3.98971 6.39717 3.99507 6.38125C4.00044 6.36534 4.01517 6.35447 4.03196 6.35404H4.33596L4.43116 6.07244C4.43196 6.03404 4.48476 6.03404 4.49596 6.07244ZM3.36156 5.35164L3.45676 5.63324H3.75196C3.76875 5.63367 3.78349 5.64454 3.78885 5.66045C3.79422 5.67637 3.78907 5.69394 3.77596 5.70444L3.53596 5.88124L3.62636 6.16284C3.63195 6.17933 3.62599 6.19752 3.61174 6.20751C3.59749 6.21751 3.57836 6.21691 3.56476 6.20604L3.32476 6.03404L3.08476 6.20604C3.07098 6.21573 3.0526 6.21573 3.0388 6.20606C3.02501 6.19639 3.01875 6.1791 3.02316 6.16284L3.11356 5.88124L2.87356 5.70444C2.86046 5.69394 2.85531 5.67637 2.86067 5.66045C2.86604 5.64454 2.88077 5.63367 2.89756 5.63324H3.20156L3.29676 5.35164C3.29756 5.31884 3.35036 5.31884 3.36156 5.35164ZM10.1624 5.35164L10.2576 5.63324H10.5528C10.5696 5.63367 10.5843 5.64454 10.5897 5.66045C10.595 5.67637 10.5899 5.69394 10.5768 5.70444L10.3368 5.88124L10.4272 6.16284C10.4327 6.17933 10.4268 6.19752 10.4125 6.20751C10.3983 6.21751 10.3792 6.21691 10.3656 6.20604L10.1256 6.03404L9.88556 6.20604C9.87178 6.21573 9.8534 6.21573 9.8396 6.20606C9.82581 6.19639 9.81955 6.1791 9.82396 6.16284L9.91436 5.88124L9.67436 5.70444C9.66126 5.69394 9.65611 5.67637 9.66147 5.66045C9.66684 5.64454 9.68157 5.63367 9.69836 5.63324H9.99356L10.0888 5.35164C10.1032 5.31884 10.156 5.31884 10.1624 5.35164ZM1.09356 5.35164L1.18876 5.63324H1.48396C1.50075 5.63367 1.51549 5.64454 1.52085 5.66045C1.52622 5.67637 1.52107 5.69394 1.50796 5.70444L1.26796 5.88124L1.35836 6.16284C1.36395 6.17933 1.35799 6.19752 1.34374 6.20751C1.32949 6.21751 1.31036 6.21691 1.29676 6.20604L1.05676 6.03404L0.816763 6.20604C0.802976 6.21573 0.784597 6.21573 0.770802 6.20606C0.757006 6.19639 0.750753 6.1791 0.755163 6.16284L0.845563 5.88124L0.605563 5.70444C0.592458 5.69394 0.587309 5.67637 0.592674 5.66045C0.598038 5.64454 0.612774 5.63367 0.629563 5.63324H0.933563L1.02876 5.35164C1.03436 5.31884 1.08236 5.31884 1.09356 5.35164ZM7.89356 5.35164L7.98876 5.63324H8.28396C8.30075 5.63367 8.31549 5.64454 8.32085 5.66045C8.32622 5.67637 8.32107 5.69394 8.30796 5.70444L8.06796 5.88124L8.15836 6.16284C8.16395 6.17933 8.15799 6.19752 8.14374 6.20751C8.12949 6.21751 8.11036 6.21691 8.09676 6.20604L7.85676 6.03404L7.61676 6.20604C7.60298 6.21573 7.5846 6.21573 7.5708 6.20606C7.55701 6.19639 7.55075 6.1791 7.55516 6.16284L7.64556 5.88124L7.40556 5.70444C7.39246 5.69394 7.38731 5.67637 7.39267 5.66045C7.39804 5.64454 7.41277 5.63367 7.42956 5.63324H7.72476L7.81996 5.35164C7.83436 5.31884 7.88716 5.31884 7.89356 5.35164ZM5.63036 5.35164L5.72556 5.63324H6.02076C6.03755 5.63367 6.05229 5.64454 6.05765 5.66045C6.06302 5.67637 6.05787 5.69394 6.04476 5.70444L5.80476 5.88124L5.89516 6.16284C5.90075 6.17933 5.89479 6.19752 5.88054 6.20751C5.86629 6.21751 5.84716 6.21691 5.83356 6.20604L5.59356 6.03404L5.35356 6.20604C5.33978 6.21573 5.3214 6.21573 5.3076 6.20606C5.29381 6.19639 5.28755 6.1791 5.29196 6.16284L5.38236 5.88124L5.14236 5.70444C5.12926 5.69394 5.12411 5.67637 5.12947 5.66045C5.13484 5.64454 5.14957 5.63367 5.16636 5.63324H5.47036L5.56556 5.35164C5.56636 5.31884 5.61916 5.31884 5.63036 5.35164ZM2.22796 4.60844L2.32316 4.89004H2.61836C2.63515 4.89047 2.64989 4.90134 2.65525 4.91725C2.66062 4.93317 2.65547 4.95074 2.64236 4.96124L2.40236 5.13804L2.49276 5.41964C2.49835 5.43613 2.49239 5.45432 2.47814 5.46431C2.46389 5.47431 2.44476 5.47371 2.43116 5.46284L2.19116 5.29084L1.95116 5.46284C1.93738 5.47253 1.919 5.47253 1.9052 5.46286C1.89141 5.45319 1.88515 5.4359 1.88956 5.41964L1.98796 5.13964L1.74796 4.96284C1.73486 4.95234 1.72971 4.93477 1.73507 4.91885C1.74044 4.90294 1.75517 4.89207 1.77196 4.89164H2.06796L2.16316 4.61004C2.16876 4.57004 2.21676 4.57004 2.22796 4.60844ZM8.99116 4.57164C9.01149 4.57164 9.02796 4.58812 9.02796 4.60844L9.12316 4.89004H9.41836C9.43515 4.89047 9.44989 4.90134 9.45525 4.91725C9.46062 4.93317 9.45547 4.95074 9.44236 4.96124L9.20236 5.13804L9.29276 5.41964C9.29835 5.43613 9.29239 5.45432 9.27814 5.46431C9.26389 5.47431 9.24476 5.47371 9.23116 5.46284L8.99116 5.29084L8.75116 5.46284C8.73738 5.47253 8.719 5.47253 8.7052 5.46286C8.69141 5.45319 8.68515 5.4359 8.68956 5.41964L8.77996 5.13804L8.53996 4.96124C8.52686 4.95074 8.52171 4.93317 8.52707 4.91725C8.53244 4.90134 8.54717 4.89047 8.56396 4.89004H8.85916L8.95436 4.60844C8.95436 4.58812 8.97084 4.57164 8.99116 4.57164ZM6.76476 4.60844L6.85996 4.89004H7.15516C7.17195 4.89047 7.18669 4.90134 7.19205 4.91725C7.19742 4.93317 7.19227 4.95074 7.17916 4.96124L6.93916 5.13804L7.02956 5.41964C7.03515 5.43613 7.02919 5.45432 7.01494 5.46431C7.00069 5.47431 6.98156 5.47371 6.96796 5.46284L6.72796 5.29084L6.48796 5.46284C6.47418 5.47253 6.4558 5.47253 6.442 5.46286C6.42821 5.45319 6.42195 5.4359 6.42636 5.41964L6.51676 5.13804L6.27676 4.96124C6.26366 4.95074 6.25851 4.93317 6.26387 4.91725C6.26924 4.90134 6.28397 4.89047 6.30076 4.89004H6.59596L6.69116 4.60844C6.70076 4.57004 6.75356 4.57004 6.76476 4.60844ZM4.49596 4.60844L4.59116 4.89004H4.88636C4.90315 4.89047 4.91789 4.90134 4.92325 4.91725C4.92862 4.93317 4.92347 4.95074 4.91036 4.96124L4.67036 5.13804L4.76076 5.41964C4.76635 5.43613 4.76039 5.45432 4.74614 5.46431C4.73189 5.47431 4.71276 5.47371 4.69916 5.46284L4.45916 5.29084L4.21916 5.46284C4.20538 5.47253 4.187 5.47253 4.1732 5.46286C4.15941 5.45319 4.15315 5.4359 4.15756 5.41964L4.25596 5.13964L4.01596 4.96284C4.00286 4.95234 3.99771 4.93477 4.00307 4.91885C4.00844 4.90294 4.02317 4.89207 4.03996 4.89164H4.33596L4.43116 4.61004C4.43196 4.57004 4.48476 4.57004 4.49596 4.60844ZM3.36156 3.89244L3.45676 4.17404H3.75196C3.76875 4.17447 3.78349 4.18534 3.78885 4.20125C3.79422 4.21717 3.78907 4.23474 3.77596 4.24524L3.53596 4.42204L3.62636 4.70364C3.63195 4.72013 3.62599 4.73832 3.61174 4.74831C3.59749 4.75831 3.57836 4.75771 3.56476 4.74684L3.32476 4.57484L3.08476 4.74684C3.07098 4.75653 3.0526 4.75654 3.0388 4.74686C3.02501 4.73719 3.01875 4.7199 3.02316 4.70364L3.12156 4.42364L2.88156 4.24684C2.86846 4.23634 2.86331 4.21877 2.86867 4.20285C2.87404 4.18694 2.88877 4.17607 2.90556 4.17564H3.20156L3.29676 3.89404C3.29756 3.85404 3.35036 3.85404 3.36156 3.89244ZM10.1289 3.86689C10.1447 3.86651 10.1586 3.87713 10.1624 3.89244L10.2576 4.17404H10.5528C10.5696 4.17447 10.5843 4.18534 10.5897 4.20125C10.595 4.21717 10.5899 4.23474 10.5768 4.24524L10.3368 4.42204L10.4272 4.70364C10.4327 4.72013 10.4268 4.73832 10.4125 4.74831C10.3983 4.75831 10.3792 4.75771 10.3656 4.74684L10.1256 4.57484L9.88556 4.74684C9.87178 4.75653 9.8534 4.75654 9.8396 4.74686C9.82581 4.73719 9.81955 4.7199 9.82396 4.70364L9.92236 4.42364L9.68236 4.24684C9.66926 4.23634 9.66411 4.21877 9.66947 4.20285C9.67484 4.18694 9.68957 4.17607 9.70636 4.17564H10.0016L10.0968 3.89404C10.0998 3.87857 10.1132 3.86728 10.1289 3.86689ZM7.85676 3.85564C7.87709 3.85564 7.89356 3.87212 7.89356 3.89244L7.98876 4.17404H8.28396C8.30075 4.17447 8.31549 4.18534 8.32085 4.20125C8.32622 4.21717 8.32107 4.23474 8.30796 4.24524L8.06796 4.42204L8.15836 4.70364C8.16395 4.72013 8.15799 4.73832 8.14374 4.74831C8.12949 4.75831 8.11036 4.75771 8.09676 4.74684L7.85676 4.57484L7.61676 4.74684C7.60298 4.75653 7.5846 4.75654 7.5708 4.74686C7.55701 4.73719 7.55075 4.7199 7.55516 4.70364L7.64556 4.42204L7.40556 4.24524C7.39246 4.23474 7.38731 4.21717 7.39267 4.20125C7.39804 4.18534 7.41277 4.17447 7.42956 4.17404H7.72476L7.81996 3.89244C7.81996 3.87212 7.83644 3.85564 7.85676 3.85564ZM1.09356 3.89244L1.18876 4.17404H1.48396C1.50075 4.17447 1.51549 4.18534 1.52085 4.20125C1.52622 4.21717 1.52107 4.23474 1.50796 4.24524L1.26796 4.42204L1.35836 4.70364C1.36395 4.72013 1.35799 4.73832 1.34374 4.74831C1.32949 4.75831 1.31036 4.75771 1.29676 4.74684L1.05676 4.57484L0.816763 4.74684C0.802976 4.75653 0.784597 4.75654 0.770802 4.74686C0.757006 4.73719 0.750753 4.7199 0.755163 4.70364L0.853563 4.42364L0.613563 4.24684C0.600458 4.23634 0.595309 4.21877 0.600674 4.20285C0.606038 4.18694 0.620774 4.17607 0.637563 4.17564H0.933563L1.02876 3.89404C1.03436 3.85404 1.08236 3.85404 1.09356 3.89244ZM5.63036 3.89244L5.72556 4.17404H6.02076C6.03755 4.17447 6.05229 4.18534 6.05765 4.20125C6.06302 4.21717 6.05787 4.23474 6.04476 4.24524L5.80476 4.42204L5.89516 4.70364C5.90075 4.72013 5.89479 4.73832 5.88054 4.74831C5.86629 4.75831 5.84716 4.75771 5.83356 4.74684L5.59356 4.57484L5.35356 4.74684C5.33978 4.75653 5.3214 4.75654 5.3076 4.74686C5.29381 4.73719 5.28755 4.7199 5.29196 4.70364L5.38236 4.42204L5.14236 4.24524C5.12926 4.23474 5.12411 4.21717 5.12947 4.20125C5.13484 4.18534 5.14957 4.17447 5.16636 4.17404H5.47036L5.56556 3.89244C5.56636 3.85404 5.61916 3.85404 5.63036 3.89244ZM2.22796 3.14284L2.32316 3.42444H2.61836C2.63515 3.42487 2.64989 3.43574 2.65525 3.45165C2.66062 3.46757 2.65547 3.48514 2.64236 3.49564L2.40236 3.67244L2.49276 3.95404C2.49835 3.97053 2.49239 3.98872 2.47814 3.99871C2.46389 4.00871 2.44476 4.00811 2.43116 3.99724L2.19116 3.82524L1.95116 3.99724C1.93738 4.00693 1.919 4.00693 1.9052 3.99726C1.89141 3.98759 1.88515 3.9703 1.88956 3.95404L1.97996 3.67244L1.73996 3.49564C1.72686 3.48514 1.72171 3.46757 1.72707 3.45165C1.73244 3.43574 1.74717 3.42487 1.76396 3.42444H2.06796L2.16316 3.14284C2.16876 3.11004 2.21676 3.11004 2.22796 3.14284ZM6.76476 3.14284L6.85996 3.42444H7.15516C7.17195 3.42487 7.18669 3.43574 7.19205 3.45165C7.19742 3.46757 7.19227 3.48514 7.17916 3.49564L6.93916 3.67244L7.02956 3.95404C7.03515 3.97053 7.02919 3.98872 7.01494 3.99871C7.00069 4.00871 6.98156 4.00811 6.96796 3.99724L6.72796 3.82524L6.48796 3.99724C6.47418 4.00693 6.4558 4.00693 6.442 3.99726C6.42821 3.98759 6.42195 3.9703 6.42636 3.95404L6.51676 3.67244L6.27676 3.49564C6.26366 3.48514 6.25851 3.46757 6.26387 3.45165C6.26924 3.43574 6.28397 3.42487 6.30076 3.42444H6.59596L6.69116 3.14284C6.70076 3.11004 6.75356 3.11004 6.76476 3.14284ZM4.49596 3.14284L4.59116 3.42444H4.88636C4.90315 3.42487 4.91789 3.43574 4.92325 3.45165C4.92862 3.46757 4.92347 3.48514 4.91036 3.49564L4.67036 3.67244L4.76076 3.95404C4.76635 3.97053 4.76039 3.98872 4.74614 3.99871C4.73189 4.00871 4.71276 4.00811 4.69916 3.99724L4.45916 3.82524L4.21916 3.99724C4.20538 4.00693 4.187 4.00693 4.1732 3.99726C4.15941 3.98759 4.15315 3.9703 4.15756 3.95404L4.24796 3.67244L4.00796 3.49564C3.99486 3.48514 3.98971 3.46757 3.99507 3.45165C4.00044 3.43574 4.01517 3.42487 4.03196 3.42444H4.33596L4.43116 3.14284C4.43196 3.11004 4.48476 3.11004 4.49596 3.14284ZM9.02796 3.14284L9.12316 3.42444H9.41836C9.43515 3.42487 9.44989 3.43574 9.45525 3.45165C9.46062 3.46757 9.45547 3.48514 9.44236 3.49564L9.20236 3.67244L9.29276 3.95404C9.29835 3.97053 9.29239 3.98872 9.27814 3.99871C9.26389 4.00871 9.24476 4.00811 9.23116 3.99724L8.99116 3.82524L8.75116 3.99724C8.73738 4.00693 8.719 4.00693 8.7052 3.99726C8.69141 3.98759 8.68515 3.9703 8.68956 3.95404L8.77996 3.67244L8.53996 3.49564C8.52686 3.48514 8.52171 3.46757 8.52707 3.45165C8.53244 3.43574 8.54717 3.42487 8.56396 3.42444H8.85916L8.95436 3.14284C8.96876 3.11004 9.02156 3.11004 9.02796 3.14284ZM5.63036 2.42764L5.72556 2.70924H6.02076C6.03755 2.70967 6.05229 2.72054 6.05765 2.73645C6.06302 2.75237 6.05787 2.76994 6.04476 2.78044L5.80476 2.95724L5.89516 3.23884C5.90075 3.25533 5.89479 3.27352 5.88054 3.28351C5.86629 3.29351 5.84716 3.29291 5.83356 3.28204L5.59356 3.11004L5.35356 3.28204C5.33978 3.29173 5.3214 3.29173 5.3076 3.28206C5.29381 3.27239 5.28755 3.2551 5.29196 3.23884L5.38236 2.95724L5.14236 2.78044C5.12926 2.76994 5.12411 2.75237 5.12947 2.73645C5.13484 2.72054 5.14957 2.70967 5.16636 2.70924H5.47036L5.56556 2.42764C5.56636 2.39484 5.61916 2.39484 5.63036 2.42764ZM1.09356 2.42764L1.18876 2.70924H1.48396C1.50075 2.70967 1.51549 2.72054 1.52085 2.73645C1.52622 2.75237 1.52107 2.76994 1.50796 2.78044L1.26796 2.95724L1.35836 3.23884C1.36395 3.25533 1.35799 3.27352 1.34374 3.28351C1.32949 3.29351 1.31036 3.29291 1.29676 3.28204L1.05676 3.11004L0.816763 3.28204C0.802976 3.29173 0.784597 3.29173 0.770802 3.28206C0.757006 3.27239 0.750753 3.2551 0.755163 3.23884L0.845563 2.95724L0.605563 2.78044C0.592458 2.76994 0.587309 2.75237 0.592674 2.73645C0.598038 2.72054 0.612774 2.70967 0.629563 2.70924H0.933563L1.02876 2.42764C1.03436 2.39484 1.08236 2.39484 1.09356 2.42764ZM3.36476 2.42764L3.45996 2.70924H3.75676C3.77355 2.70967 3.78829 2.72054 3.79365 2.73645C3.79902 2.75237 3.79387 2.76994 3.78076 2.78044L3.54076 2.95724L3.63116 3.23884C3.63675 3.25533 3.63079 3.27352 3.61654 3.28351C3.60229 3.29351 3.58316 3.29291 3.56956 3.28204L3.32956 3.11004L3.08956 3.28204C3.07578 3.29173 3.0574 3.29173 3.0436 3.28206C3.02981 3.27239 3.02355 3.2551 3.02796 3.23884L3.11836 2.95724L2.87836 2.78044C2.86526 2.76994 2.86011 2.75237 2.86547 2.73645C2.87084 2.72054 2.88557 2.70967 2.90236 2.70924H3.19676L3.29196 2.42764C3.29756 2.39484 3.35036 2.39484 3.36476 2.42764ZM7.89356 2.42764L7.98876 2.70924H8.28396C8.30075 2.70967 8.31549 2.72054 8.32085 2.73645C8.32622 2.75237 8.32107 2.76994 8.30796 2.78044L8.06796 2.95724L8.15836 3.23884C8.16395 3.25533 8.15799 3.27352 8.14374 3.28351C8.12949 3.29351 8.11036 3.29291 8.09676 3.28204L7.85676 3.11004L7.61676 3.28204C7.60298 3.29173 7.5846 3.29173 7.5708 3.28206C7.55701 3.27239 7.55075 3.2551 7.55516 3.23884L7.64556 2.95724L7.40556 2.78044C7.39246 2.76994 7.38731 2.75237 7.39267 2.73645C7.39804 2.72054 7.41277 2.70967 7.42956 2.70924H7.72476L7.81996 2.42764C7.83436 2.39484 7.88716 2.39484 7.89356 2.42764ZM10.1624 2.42764L10.2576 2.70924H10.5528C10.5696 2.70967 10.5843 2.72054 10.5897 2.73645C10.595 2.75237 10.5899 2.76994 10.5768 2.78044L10.3368 2.95724L10.4272 3.23884C10.4327 3.25533 10.4268 3.27352 10.4125 3.28351C10.3983 3.29351 10.3792 3.29291 10.3656 3.28204L10.1256 3.11004L9.88556 3.28204C9.87178 3.29173 9.8534 3.29173 9.8396 3.28206C9.82581 3.27239 9.81955 3.2551 9.82396 3.23884L9.91436 2.95724L9.67436 2.78044C9.66126 2.76994 9.65611 2.75237 9.66147 2.73645C9.66684 2.72054 9.68157 2.70967 9.69836 2.70924H9.99356L10.0888 2.42764C10.1032 2.39484 10.156 2.39484 10.1624 2.42764ZM6.76476 1.68364L6.85996 1.96524H7.15516C7.17195 1.96567 7.18669 1.97654 7.19205 1.99245C7.19742 2.00837 7.19227 2.02594 7.17916 2.03644L6.93916 2.21324L7.02956 2.49484C7.03515 2.51133 7.02919 2.52952 7.01494 2.53951C7.00069 2.54951 6.98156 2.54891 6.96796 2.53804L6.72796 2.36604L6.48796 2.53804C6.47418 2.54773 6.4558 2.54773 6.442 2.53806C6.42821 2.52839 6.42195 2.5111 6.42636 2.49484L6.51676 2.21324L6.27676 2.03644C6.26366 2.02594 6.25851 2.00837 6.26387 1.99245C6.26924 1.97654 6.28397 1.96567 6.30076 1.96524H6.59596L6.69116 1.68364C6.70076 1.64524 6.75356 1.64524 6.76476 1.68364ZM4.49596 1.68364L4.59116 1.96524H4.88636C4.90315 1.96567 4.91789 1.97654 4.92325 1.99245C4.92862 2.00837 4.92347 2.02594 4.91036 2.03644L4.67036 2.21324L4.76076 2.49484C4.76635 2.51133 4.76039 2.52952 4.74614 2.53951C4.73189 2.54951 4.71276 2.54891 4.69916 2.53804L4.45916 2.36604L4.21916 2.53804C4.20538 2.54773 4.187 2.54773 4.1732 2.53806C4.15941 2.52839 4.15315 2.5111 4.15756 2.49484L4.25596 2.21484L4.01596 2.03804C4.00286 2.02754 3.99771 2.00997 4.00307 1.99405C4.00844 1.97814 4.02317 1.96727 4.03996 1.96684H4.33596L4.43116 1.68524C4.43196 1.64524 4.48476 1.64524 4.49596 1.68364ZM2.22796 1.68364L2.32316 1.96524H2.61836C2.63515 1.96567 2.64989 1.97654 2.65525 1.99245C2.66062 2.00837 2.65547 2.02594 2.64236 2.03644L2.40236 2.21324L2.49276 2.49484C2.49835 2.51133 2.49239 2.52952 2.47814 2.53951C2.46389 2.54951 2.44476 2.54891 2.43116 2.53804L2.19116 2.36604L1.95116 2.53804C1.93738 2.54773 1.919 2.54773 1.9052 2.53806C1.89141 2.52839 1.88515 2.5111 1.88956 2.49484L1.98796 2.21484L1.74796 2.03804C1.73486 2.02754 1.72971 2.00997 1.73507 1.99405C1.74044 1.97814 1.75517 1.96727 1.77196 1.96684H2.06796L2.16316 1.68524C2.16876 1.64524 2.21676 1.64524 2.22796 1.68364ZM9.00956 1.65177C9.02095 1.65834 9.02796 1.67049 9.02796 1.68364L9.12316 1.96524H9.41836C9.43515 1.96567 9.44989 1.97654 9.45525 1.99245C9.46062 2.00837 9.45547 2.02594 9.44236 2.03644L9.20236 2.21324L9.29276 2.49484C9.29835 2.51133 9.29239 2.52952 9.27814 2.53951C9.26389 2.54951 9.24476 2.54891 9.23116 2.53804L8.99116 2.36604L8.75116 2.53804C8.73738 2.54773 8.719 2.54773 8.7052 2.53806C8.69141 2.52839 8.68515 2.5111 8.68956 2.49484L8.77996 2.21324L8.53996 2.03644C8.52686 2.02594 8.52171 2.00837 8.52707 1.99245C8.53244 1.97654 8.54717 1.96567 8.56396 1.96524H8.85916L8.95436 1.68364C8.95436 1.67049 8.96138 1.65834 8.97276 1.65177C8.98415 1.6452 8.99818 1.6452 9.00956 1.65177ZM1.09356 0.968441L1.18876 1.25004H1.48396C1.50075 1.25047 1.51549 1.26134 1.52085 1.27725C1.52622 1.29317 1.52107 1.31074 1.50796 1.32124L1.26796 1.49804L1.35836 1.77964C1.36395 1.79613 1.35799 1.81432 1.34374 1.82431C1.32949 1.83431 1.31036 1.83371 1.29676 1.82284L1.05676 1.65084L0.816763 1.82284C0.802976 1.83253 0.784597 1.83253 0.770802 1.82286C0.757006 1.81319 0.750753 1.7959 0.755163 1.77964L0.853563 1.49964L0.613563 1.32284C0.600458 1.31234 0.595309 1.29477 0.600674 1.27885C0.606038 1.26294 0.620774 1.25207 0.637563 1.25164H0.933563L1.02876 0.970041C1.03436 0.930041 1.08236 0.930041 1.09356 0.968441ZM3.36156 0.968441L3.45676 1.25004H3.75196C3.76875 1.25047 3.78349 1.26134 3.78885 1.27725C3.79422 1.29317 3.78907 1.31074 3.77596 1.32124L3.53596 1.49804L3.62636 1.77964C3.63195 1.79613 3.62599 1.81432 3.61174 1.82431C3.59749 1.83431 3.57836 1.83371 3.56476 1.82284L3.32476 1.65084L3.08476 1.82284C3.07098 1.83253 3.0526 1.83253 3.0388 1.82286C3.02501 1.81319 3.01875 1.7959 3.02316 1.77964L3.12156 1.49964L2.88156 1.32284C2.86846 1.31234 2.86331 1.29477 2.86867 1.27885C2.87404 1.26294 2.88877 1.25207 2.90556 1.25164H3.20156L3.29676 0.970041C3.29756 0.930041 3.35036 0.930041 3.36156 0.968441ZM5.63036 0.968441L5.72556 1.25004H6.02076C6.03755 1.25047 6.05229 1.26134 6.05765 1.27725C6.06302 1.29317 6.05787 1.31074 6.04476 1.32124L5.80476 1.49804L5.89516 1.77964C5.90075 1.79613 5.89479 1.81432 5.88054 1.82431C5.86629 1.83431 5.84716 1.83371 5.83356 1.82284L5.59356 1.65084L5.35356 1.82284C5.33978 1.83253 5.3214 1.83253 5.3076 1.82286C5.29381 1.81319 5.28755 1.7959 5.29196 1.77964L5.38236 1.49804L5.14236 1.32124C5.12926 1.31074 5.12411 1.29317 5.12947 1.27725C5.13484 1.26134 5.14957 1.25047 5.16636 1.25004H5.47036L5.56556 0.968441C5.56636 0.930041 5.61916 0.930041 5.63036 0.968441ZM7.87516 0.936571C7.88655 0.943145 7.89356 0.955293 7.89356 0.968441L7.98876 1.25004H8.28396C8.30075 1.25047 8.31549 1.26134 8.32085 1.27725C8.32622 1.29317 8.32107 1.31074 8.30796 1.32124L8.06796 1.49804L8.15836 1.77964C8.16395 1.79613 8.15799 1.81432 8.14374 1.82431C8.12949 1.83431 8.11036 1.83371 8.09676 1.82284L7.85676 1.65084L7.61676 1.82284C7.60298 1.83253 7.5846 1.83253 7.5708 1.82286C7.55701 1.81319 7.55075 1.7959 7.55516 1.77964L7.64556 1.49804L7.40556 1.32124C7.39246 1.31074 7.38731 1.29317 7.39267 1.27725C7.39804 1.26134 7.41277 1.25047 7.42956 1.25004H7.72476L7.81996 0.968441C7.81996 0.955293 7.82698 0.943145 7.83836 0.936571C7.84975 0.929997 7.86378 0.929997 7.87516 0.936571ZM10.1289 0.942893C10.1447 0.942508 10.1586 0.953134 10.1624 0.968441L10.2576 1.25004H10.5528C10.5696 1.25047 10.5843 1.26134 10.5897 1.27725C10.595 1.29317 10.5899 1.31074 10.5768 1.32124L10.3368 1.49804L10.4272 1.77964C10.4327 1.79613 10.4268 1.81432 10.4125 1.82431C10.3983 1.83431 10.3792 1.83371 10.3656 1.82284L10.1256 1.65084L9.88556 1.82284C9.87178 1.83253 9.8534 1.83253 9.8396 1.82286C9.82581 1.81319 9.81955 1.7959 9.82396 1.77964L9.92236 1.49964L9.68236 1.32284C9.66926 1.31234 9.66411 1.29477 9.66947 1.27885C9.67484 1.26294 9.68957 1.25207 9.70636 1.25164H10.0016L10.0968 0.970041C10.0998 0.954568 10.1132 0.943277 10.1289 0.942893Z"
            fill="#F5F5F5" />
        <path fill-rule="evenodd" clip-rule="evenodd"
            d="M22 1H2C1.44772 1 1 1.44772 1 2V14C1 14.5523 1.44772 15 2 15H22C22.5523 15 23 14.5523 23 14V2C23 1.44771 22.5523 1 22 1ZM2 0C0.895431 0 0 0.895431 0 2V14C0 15.1046 0.89543 16 2 16H22C23.1046 16 24 15.1046 24 14V2C24 0.895431 23.1046 0 22 0H2Z"
            fill="black" fill-opacity="0.08" />
    </g>
</svg>